<?xml version="1.0" encoding="iso-8859-1"?>
<!-- Generator: Adobe Illustrator 19.0.0, SVG Export Plug-In . SVG Version: 6.00 Build 0)  -->
<svg version="1.1" id="Capa_1" xmlns="http://www.w3.org/2000/svg" xmlns:xlink="http://www.w3.org/1999/xlink" fill="#E44D3A" x="0px" y="0px" viewBox="0 0 512 512" style="enable-background:new 0 0 512 512;" xml:space="preserve">
<g>
	<g>
		<path d="M47.054,302h-32c-8.291,0-15,6.709-15,15v180c0,8.291,6.709,15,15,15h32c24.814,0,45-20.186,45-45V347
			C92.054,322.186,71.869,302,47.054,302z"/>
	</g>
</g>
<g>
	<g>
		<path d="M507.554,331.099c-1.8-2.999-4.199-5.4-6.899-7.5c-11.045-9.662-29.654-8.749-40.499,3.001l-68.101,78.6l-2.1,2.399
			c-8.399,9.3-20.4,14.401-32.999,14.401h-116.4c-8.401,0-15-6.601-15-15c0-8.401,6.599-15,15-15h91.5c16.5,0,30-13.5,30-30v-0.3
			c-0.3-16.5-13.5-29.7-30-29.7h-54.3c-8.996,0-18.636-3.303-26.4-9.901c-36.599-32.1-90-34.2-129.3-6.899v184.499
			c29.7,8.101,60.3,12.301,91.199,12.301h133.801c32.999,0,64.2-15.601,84-42.001l72.001-96
			C513.56,360.21,514.352,341.3,507.554,331.099z"/>
	</g>
</g>
<g>
	<g>
		<path d="M402.264,28.995C385.627,10.297,362.564,0,337.324,0c-28.172,0-52.593,13.321-70.622,38.522
			c-1.352,1.889-2.617,3.779-3.802,5.649c-1.184-1.871-2.449-3.76-3.801-5.649C241.07,13.321,216.649,0,188.477,0
			c-25.24,0-48.303,10.297-64.939,28.994C107.75,46.738,99.054,70.459,99.054,95.788c0,27.525,10.681,52.924,33.611,79.934
			c20.009,23.565,48.708,47.788,81.938,75.836c12.28,10.365,24.979,21.083,38.473,32.778c2.819,2.443,6.321,3.665,9.824,3.665
			c3.502,0,7.005-1.222,9.824-3.665c13.492-11.693,26.189-22.41,38.469-32.773c21.342-18.014,39.773-33.57,55.767-48.66
			c31.053-29.298,59.787-62.553,59.787-107.114C426.747,70.46,418.052,46.739,402.264,28.995z"/>
	</g>
</g>
<g>
</g>
<g>
</g>
<g>
</g>
<g>
</g>
<g>
</g>
<g>
</g>
<g>
</g>
<g>
</g>
<g>
</g>
<g>
</g>
<g>
</g>
<g>
</g>
<g>
</g>
<g>
</g>
<g>
</g>
</svg>
